<svg width="1280" height="720" xmlns="http://www.w3.org/2000/svg" xmlns:xlink="http://www.w3.org/1999/xlink" overflow="hidden"><defs><clipPath id="clip0"><rect x="0" y="0" width="1280" height="720"/></clipPath><clipPath id="clip1"><rect x="689" y="359" width="57" height="57"/></clipPath><clipPath id="clip2"><rect x="689" y="359" width="57" height="57"/></clipPath><clipPath id="clip3"><rect x="689" y="359" width="57" height="57"/></clipPath><linearGradient x1="726.753" y1="384.891" x2="731.954" y2="390.077" gradientUnits="userSpaceOnUse" spreadMethod="pad" id="fill4"><stop offset="0" stop-color="#86D633"/><stop offset="1" stop-color="#5E9624"/></linearGradient><linearGradient x1="708.57" y1="386.202" x2="713.732" y2="391.395" gradientUnits="userSpaceOnUse" spreadMethod="pad" id="fill5"><stop offset="0" stop-color="#86D633"/><stop offset="1" stop-color="#5E9624"/></linearGradient><linearGradient x1="696.853" y1="386.202" x2="702.015" y2="391.395" gradientUnits="userSpaceOnUse" spreadMethod="pad" id="fill6"><stop offset="0" stop-color="#86D633"/><stop offset="1" stop-color="#5E9624"/></linearGradient><clipPath id="clip7"><rect x="587" y="266" width="34" height="34"/></clipPath><clipPath id="clip8"><rect x="587" y="266" width="34" height="34"/></clipPath><clipPath id="clip9"><rect x="587" y="266" width="34" height="34"/></clipPath><linearGradient x1="603.226" y1="251.286" x2="604.227" y2="303.872" gradientUnits="userSpaceOnUse" spreadMethod="pad" id="fill10"><stop offset="0" stop-color="#32D4F5"/><stop offset="0.22" stop-color="#32D4F5"/><stop offset="0.47" stop-color="#31D1F3"/><stop offset="0.63" stop-color="#2EC9EB"/><stop offset="0.77" stop-color="#29BADE"/><stop offset="0.89" stop-color="#22A5CB"/><stop offset="1" stop-color="#198AB3"/><stop offset="1" stop-color="#198AB3"/></linearGradient><clipPath id="clip11"><rect x="477" y="301" width="55" height="56"/></clipPath><clipPath id="clip12"><rect x="477" y="301" width="55" height="56"/></clipPath><clipPath id="clip13"><rect x="477" y="301" width="55" height="56"/></clipPath><linearGradient x1="22.5009" y1="4.37725" x2="32.9348" y2="14.7821" gradientUnits="userSpaceOnUse" spreadMethod="pad" id="fill14"><stop offset="0" stop-color="#86D633"/><stop offset="1" stop-color="#5E9624"/></linearGradient><linearGradient x1="36.1778" y1="44.4278" x2="46.5667" y2="54.8472" gradientUnits="userSpaceOnUse" spreadMethod="pad" id="fill15"><stop offset="0" stop-color="#86D633"/><stop offset="1" stop-color="#5E9624"/></linearGradient><linearGradient x1="-4.09444" y1="44.3972" x2="6.29444" y2="54.7861" gradientUnits="userSpaceOnUse" spreadMethod="pad" id="fill16"><stop offset="0" stop-color="#86D633"/><stop offset="1" stop-color="#5E9624"/></linearGradient><clipPath id="clip17"><rect x="587" y="309" width="34" height="34"/></clipPath><clipPath id="clip18"><rect x="587" y="309" width="34" height="34"/></clipPath><clipPath id="clip19"><rect x="587" y="309" width="34" height="34"/></clipPath><linearGradient x1="603.226" y1="294.286" x2="604.227" y2="346.872" gradientUnits="userSpaceOnUse" spreadMethod="pad" id="fill20"><stop offset="0" stop-color="#32D4F5"/><stop offset="0.22" stop-color="#32D4F5"/><stop offset="0.47" stop-color="#31D1F3"/><stop offset="0.63" stop-color="#2EC9EB"/><stop offset="0.77" stop-color="#29BADE"/><stop offset="0.89" stop-color="#22A5CB"/><stop offset="1" stop-color="#198AB3"/><stop offset="1" stop-color="#198AB3"/></linearGradient><clipPath id="clip21"><rect x="879" y="212" width="56" height="56"/></clipPath><clipPath id="clip22"><rect x="879" y="212" width="56" height="56"/></clipPath><clipPath id="clip23"><rect x="879" y="212" width="56" height="56"/></clipPath><linearGradient x1="916.091" y1="237.437" x2="921.2" y2="242.532" gradientUnits="userSpaceOnUse" spreadMethod="pad" id="fill24"><stop offset="0" stop-color="#86D633"/><stop offset="1" stop-color="#5E9624"/></linearGradient><linearGradient x1="898.227" y1="238.724" x2="903.298" y2="243.827" gradientUnits="userSpaceOnUse" spreadMethod="pad" id="fill25"><stop offset="0" stop-color="#86D633"/><stop offset="1" stop-color="#5E9624"/></linearGradient><linearGradient x1="886.716" y1="238.724" x2="891.787" y2="243.827" gradientUnits="userSpaceOnUse" spreadMethod="pad" id="fill26"><stop offset="0" stop-color="#86D633"/><stop offset="1" stop-color="#5E9624"/></linearGradient><clipPath id="clip27"><rect x="885" y="509" width="57" height="57"/></clipPath><clipPath id="clip28"><rect x="885" y="509" width="57" height="57"/></clipPath><clipPath id="clip29"><rect x="885" y="509" width="57" height="57"/></clipPath><linearGradient x1="922.753" y1="534.891" x2="927.954" y2="540.077" gradientUnits="userSpaceOnUse" spreadMethod="pad" id="fill30"><stop offset="0" stop-color="#86D633"/><stop offset="1" stop-color="#5E9624"/></linearGradient><linearGradient x1="904.57" y1="536.202" x2="909.732" y2="541.395" gradientUnits="userSpaceOnUse" spreadMethod="pad" id="fill31"><stop offset="0" stop-color="#86D633"/><stop offset="1" stop-color="#5E9624"/></linearGradient><linearGradient x1="892.853" y1="536.202" x2="898.015" y2="541.395" gradientUnits="userSpaceOnUse" spreadMethod="pad" id="fill32"><stop offset="0" stop-color="#86D633"/><stop offset="1" stop-color="#5E9624"/></linearGradient><clipPath id="clip33"><rect x="810" y="457" width="38" height="39"/></clipPath><clipPath id="clip34"><rect x="810" y="457" width="38" height="39"/></clipPath><clipPath id="clip35"><rect x="810" y="457" width="38" height="39"/></clipPath><linearGradient x1="18.7467" y1="25.7767" x2="18.7467" y2="0.443333" gradientUnits="userSpaceOnUse" spreadMethod="pad" id="fill36"><stop offset="0" stop-color="#0078D4"/><stop offset="0.82" stop-color="#5EA0EF"/><stop offset="1" stop-color="#5EA0EF"/></linearGradient><linearGradient x1="18.7467" y1="35.5511" x2="18.7467" y2="25.7767" gradientUnits="userSpaceOnUse" spreadMethod="pad" id="fill37"><stop offset="0" stop-color="#CCCCCC"/><stop offset="0.15" stop-color="#CCCCCC"/><stop offset="1" stop-color="#707070"/></linearGradient><clipPath id="clip38"><rect x="859" y="457" width="39" height="39"/></clipPath><clipPath id="clip39"><rect x="859" y="457" width="39" height="39"/></clipPath><clipPath id="clip40"><rect x="859" y="457" width="39" height="39"/></clipPath><linearGradient x1="878.24" y1="483.455" x2="878.24" y2="457.455" gradientUnits="userSpaceOnUse" spreadMethod="pad" id="fill41"><stop offset="0" stop-color="#0078D4"/><stop offset="0.82" stop-color="#5EA0EF"/><stop offset="1" stop-color="#5EA0EF"/></linearGradient><linearGradient x1="878.24" y1="493.487" x2="878.24" y2="483.455" gradientUnits="userSpaceOnUse" spreadMethod="pad" id="fill42"><stop offset="0" stop-color="#CCCCCC"/><stop offset="0.15" stop-color="#CCCCCC"/><stop offset="1" stop-color="#707070"/></linearGradient><clipPath id="clip43"><rect x="803" y="153" width="39" height="38"/></clipPath><clipPath id="clip44"><rect x="803" y="153" width="39" height="38"/></clipPath><clipPath id="clip45"><rect x="803" y="153" width="39" height="38"/></clipPath><linearGradient x1="18.7467" y1="25.7767" x2="18.7467" y2="0.443333" gradientUnits="userSpaceOnUse" spreadMethod="pad" id="fill46"><stop offset="0" stop-color="#0078D4"/><stop offset="0.82" stop-color="#5EA0EF"/><stop offset="1" stop-color="#5EA0EF"/></linearGradient><linearGradient x1="18.7467" y1="35.5511" x2="18.7467" y2="25.7767" gradientUnits="userSpaceOnUse" spreadMethod="pad" id="fill47"><stop offset="0" stop-color="#CCCCCC"/><stop offset="0.15" stop-color="#CCCCCC"/><stop offset="1" stop-color="#707070"/></linearGradient><clipPath id="clip48"><rect x="853" y="153" width="39" height="38"/></clipPath><clipPath id="clip49"><rect x="853" y="153" width="39" height="38"/></clipPath><clipPath id="clip50"><rect x="853" y="153" width="39" height="38"/></clipPath><linearGradient x1="18.7467" y1="25.7767" x2="18.7467" y2="0.443333" gradientUnits="userSpaceOnUse" spreadMethod="pad" id="fill51"><stop offset="0" stop-color="#0078D4"/><stop offset="0.82" stop-color="#5EA0EF"/><stop offset="1" stop-color="#5EA0EF"/></linearGradient><linearGradient x1="18.7467" y1="35.5511" x2="18.7467" y2="25.7767" gradientUnits="userSpaceOnUse" spreadMethod="pad" id="fill52"><stop offset="0" stop-color="#CCCCCC"/><stop offset="0.15" stop-color="#CCCCCC"/><stop offset="1" stop-color="#707070"/></linearGradient><clipPath id="clip53"><rect x="350" y="296" width="32" height="32"/></clipPath><clipPath id="clip54"><rect x="350" y="296" width="32" height="32"/></clipPath><clipPath id="clip55"><rect x="350" y="296" width="32" height="32"/></clipPath><clipPath id="clip56"><rect x="350" y="330" width="32" height="32"/></clipPath><clipPath id="clip57"><rect x="350" y="330" width="32" height="32"/></clipPath><clipPath id="clip58"><rect x="350" y="330" width="32" height="32"/></clipPath><clipPath id="clip59"><rect x="590" y="351" width="41" height="34"/></clipPath><clipPath id="clip60"><rect x="590" y="351" width="41" height="34"/></clipPath><clipPath id="clip61"><rect x="590" y="351" width="41" height="34"/></clipPath><clipPath id="clip62"><rect x="504" y="122" width="32" height="33"/></clipPath><clipPath id="clip63"><rect x="504" y="122" width="32" height="33"/></clipPath><clipPath id="clip64"><rect x="504" y="122" width="32" height="33"/></clipPath></defs><g clip-path="url(#clip0)"><rect x="0" y="0" width="1280" height="720" fill="#FFFFFF"/><rect x="587.5" y="266.5" width="130" height="122" stroke="#2F528F" stroke-width="3" stroke-miterlimit="8" stroke-dasharray="3 3" fill="none"/><g clip-path="url(#clip1)"><g clip-path="url(#clip2)"><g clip-path="url(#clip3)"><path d="M733.017 387.468C733.017 389.497 731.372 391.142 729.343 391.142 727.315 391.142 725.67 389.497 725.67 387.468 725.67 385.44 727.315 383.795 729.343 383.795 731.372 383.795 733.017 385.44 733.017 387.468Z" fill="url(#fill4)"/><path d="M721.3 387.5C721.3 389.529 719.655 391.173 717.627 391.173 715.598 391.173 713.953 389.529 713.953 387.5 713.953 385.471 715.598 383.827 717.627 383.827 719.655 383.827 721.3 385.471 721.3 387.5Z" fill="url(#fill5)"/><path d="M709.583 387.5C709.583 389.529 707.939 391.173 705.91 391.173 703.881 391.173 702.237 389.529 702.237 387.5 702.237 385.471 703.881 383.827 705.91 383.827 707.939 383.827 709.583 385.471 709.583 387.5Z" fill="url(#fill6)"/><path d="M708.577 402.186 706.475 404.293C706.104 404.665 705.503 404.666 705.131 404.295L689.57 388.777C688.827 388.036 688.825 386.833 689.566 386.09L691.668 383.982 691.668 383.982 708.575 400.842C708.946 401.213 708.947 401.814 708.577 402.186Z" fill="#50E6FF"/><path d="M706.157 370.743 708.264 372.845C708.636 373.215 708.637 373.817 708.266 374.188L691.653 390.848 691.653 390.848 689.545 388.746C688.802 388.005 688.8 386.802 689.541 386.059L704.813 370.745C705.184 370.373 705.785 370.372 706.157 370.743Z" fill="#1490DF"/><path d="M743.329 383.954 745.431 386.061C746.172 386.804 746.171 388.007 745.428 388.748L729.866 404.266C729.495 404.637 728.893 404.636 728.522 404.265L726.421 402.157C726.05 401.785 726.051 401.184 726.422 400.813L743.329 383.954 743.329 383.954Z" fill="#50E6FF"/><path d="M745.425 388.726 743.317 390.828 743.317 390.828 726.703 374.167C726.333 373.796 726.334 373.194 726.705 372.824L728.835 370.7C729.207 370.329 729.808 370.33 730.179 370.701L745.451 386.016C746.192 386.759 746.19 387.962 745.447 388.703Z" fill="#1490DF"/></g></g></g><g clip-path="url(#clip7)"><g clip-path="url(#clip8)"><g clip-path="url(#clip9)"><path d="M615.447 282.377 613.558 282.377 613.558 276.559C613.574 273.826 612.571 271.186 610.743 269.154 609.014 267.139 606.486 265.986 603.83 266 601.148 265.964 598.588 267.119 596.841 269.154 595.001 271.178 593.995 273.824 594.027 276.559L594.027 282.377 592.497 282.377C591.781 282.387 591.203 282.964 591.193 283.68L591.193 298.791C591.203 299.507 591.781 300.084 592.497 300.094L615.447 300.094C616.165 300.085 616.749 299.51 616.769 298.791L616.769 283.68C616.749 282.961 616.165 282.387 615.447 282.377ZM609.081 282.377 598.579 282.377 598.579 276.464C598.596 274.952 599.183 273.502 600.222 272.403 601.118 271.377 602.411 270.785 603.773 270.779 605.14 270.787 606.439 271.378 607.343 272.403 607.567 272.657 607.769 272.928 607.948 273.216L607.948 273.216C608.656 274.147 609.059 275.276 609.1 276.446Z" fill="url(#fill10)"/><path d="M615.503 282.377 592.516 282.377C592.208 282.378 591.912 282.492 591.684 282.698L616.334 299.698C616.632 299.458 616.806 299.097 616.807 298.716L616.807 283.604C616.749 282.923 616.187 282.393 615.503 282.377Z" fill="#50E6FF"/><path d="M592.553 282.377 615.522 282.377C615.835 282.38 616.136 282.494 616.372 282.698L591.703 299.698C591.412 299.453 591.24 299.096 591.231 298.716L591.231 283.604C591.298 282.92 591.865 282.393 592.553 282.377Z" fill="#FFFFFF" fill-opacity="0.2"/><path d="M601.733 286.022 604 283.756C604.049 283.714 604.121 283.714 604.17 283.756L606.418 286.022C606.47 286.057 606.484 286.127 606.45 286.179 606.441 286.192 606.43 286.203 606.418 286.211L605.096 286.211C605.033 286.211 604.982 286.262 604.982 286.324L604.982 289.233C604.982 289.296 604.931 289.347 604.869 289.347L603.377 289.347C603.326 289.358 603.275 289.327 603.263 289.276 603.26 289.262 603.26 289.247 603.263 289.233L603.263 286.324C603.254 286.259 603.197 286.21 603.131 286.211L601.809 286.211C601.746 286.206 601.7 286.152 601.705 286.089 601.706 286.064 601.717 286.041 601.733 286.022ZM606.399 296.373 604.151 298.621C604.11 298.668 604.038 298.673 603.991 298.631 603.988 298.628 603.984 298.625 603.981 298.621L601.733 296.373C601.681 296.339 601.667 296.268 601.702 296.216 601.71 296.204 601.721 296.193 601.733 296.184L603.056 296.184C603.122 296.185 603.178 296.137 603.188 296.071L603.188 293.143C603.188 293.081 603.239 293.03 603.301 293.03L604.699 293.03C604.761 293.03 604.812 293.081 604.812 293.143L604.812 296.071C604.812 296.134 604.863 296.184 604.926 296.184L606.248 296.184C606.3 296.143 606.376 296.151 606.418 296.203 606.46 296.255 606.451 296.332 606.399 296.373ZM597.521 293.446 597.521 292.123C597.521 292.061 597.47 292.01 597.408 292.01L594.556 292.01C594.493 292.01 594.442 291.959 594.442 291.897L594.442 290.556C594.41 290.502 594.428 290.432 594.482 290.4 594.504 290.387 594.53 290.382 594.556 290.386L597.408 290.386C597.47 290.386 597.521 290.335 597.521 290.272L597.521 288.95C597.529 288.877 597.594 288.825 597.666 288.832 597.689 288.834 597.71 288.842 597.729 288.856L599.977 291.122C600.015 291.165 600.015 291.23 599.977 291.273L597.729 293.54C597.669 293.582 597.587 293.568 597.545 293.508 597.532 293.49 597.523 293.468 597.521 293.446ZM610.611 288.95 610.611 290.272C610.611 290.335 610.662 290.386 610.724 290.386L613.633 290.386C613.633 290.386 613.766 290.386 613.766 290.499L613.766 291.897C613.756 291.962 613.7 292.011 613.633 292.01L610.724 292.01C610.662 292.01 610.611 292.061 610.611 292.123L610.611 293.446C610.617 293.508 610.571 293.563 610.509 293.569 610.477 293.572 610.446 293.561 610.422 293.54L608.174 291.273 608.174 291.122 610.422 288.856C610.422 288.856 610.611 288.837 610.611 288.95Z" fill="#FFFFFF"/></g></g></g><g clip-path="url(#clip11)"><g clip-path="url(#clip12)"><g clip-path="url(#clip13)"><path d="M14.5496 12.9228 20.6273 12.9228 20.6273 42.0834 14.5496 42.0834Z" fill="#A67AF4" transform="matrix(0.86208 0.506772 -0.497722 0.877754 493.042 295.836)"/><path d="M34.4095 13.4139 40.4872 13.4139 40.4872 42.5745 34.4095 42.5745Z" fill="#A67AF4" transform="matrix(0.86208 -0.506772 0.497722 0.877754 468.078 323.773)"/><path d="M24.1389 30.4639 30.1889 30.4639 30.1889 59.4917 24.1389 59.4917Z" fill="#773ADC" transform="matrix(6.12323e-17 1.01818 -1 6.23457e-17 549.142 319.107)"/><path d="M35.0778 9.59445C35.0778 13.6614 31.7809 16.9583 27.7139 16.9583 23.6469 16.9583 20.35 13.6614 20.35 9.59445 20.35 5.52748 23.6469 2.23056 27.7139 2.23056 31.7809 2.23056 35.0778 5.52748 35.0778 9.59445Z" fill="url(#fill14)" transform="matrix(1 0 0 1.01818 477 301)"/><path d="M55 45.4056C55 49.4725 51.7031 52.7694 47.6361 52.7694 43.5691 52.7694 40.2722 49.4725 40.2722 45.4056 40.2722 41.3386 43.5691 38.0417 47.6361 38.0417 51.7031 38.0417 55 41.3386 55 45.4056Z" fill="url(#fill15)" transform="matrix(1 0 0 1.01818 477 301)"/><path d="M14.7278 45.4056C14.7278 49.4725 11.4309 52.7694 7.36389 52.7694 3.29693 52.7694 2.6226e-07 49.4725 2.6226e-07 45.4056 2.6226e-07 41.3386 3.29693 38.0417 7.36389 38.0417 11.4309 38.0417 14.7278 41.3386 14.7278 45.4056Z" fill="url(#fill16)" transform="matrix(1 0 0 1.01818 477 301)"/></g></g></g><g clip-path="url(#clip17)"><g clip-path="url(#clip18)"><g clip-path="url(#clip19)"><path d="M615.447 325.377 613.558 325.377 613.558 319.559C613.574 316.826 612.571 314.186 610.743 312.154 609.014 310.139 606.486 308.986 603.83 309 601.148 308.964 598.588 310.119 596.841 312.154 595.001 314.178 593.995 316.824 594.027 319.559L594.027 325.377 592.497 325.377C591.781 325.387 591.203 325.964 591.193 326.68L591.193 341.791C591.203 342.507 591.781 343.084 592.497 343.094L615.447 343.094C616.165 343.085 616.749 342.51 616.769 341.791L616.769 326.68C616.749 325.961 616.165 325.387 615.447 325.377ZM609.081 325.377 598.579 325.377 598.579 319.464C598.596 317.952 599.183 316.502 600.222 315.403 601.118 314.377 602.411 313.785 603.773 313.779 605.14 313.787 606.439 314.378 607.343 315.403 607.567 315.657 607.769 315.928 607.948 316.216L607.948 316.216C608.656 317.147 609.059 318.276 609.1 319.446Z" fill="url(#fill20)"/><path d="M615.503 325.377 592.516 325.377C592.208 325.378 591.912 325.492 591.684 325.698L616.334 342.698C616.632 342.458 616.806 342.097 616.807 341.716L616.807 326.604C616.749 325.923 616.187 325.393 615.503 325.377Z" fill="#50E6FF"/><path d="M592.553 325.377 615.522 325.377C615.835 325.38 616.136 325.494 616.372 325.698L591.703 342.698C591.412 342.453 591.24 342.096 591.231 341.716L591.231 326.604C591.298 325.92 591.865 325.393 592.553 325.377Z" fill="#FFFFFF" fill-opacity="0.2"/><path d="M601.733 329.022 604 326.756C604.049 326.714 604.121 326.714 604.17 326.756L606.418 329.022C606.47 329.057 606.484 329.127 606.45 329.179 606.441 329.192 606.43 329.203 606.418 329.211L605.096 329.211C605.033 329.211 604.982 329.262 604.982 329.324L604.982 332.233C604.982 332.296 604.931 332.347 604.869 332.347L603.377 332.347C603.326 332.358 603.275 332.327 603.263 332.276 603.26 332.262 603.26 332.247 603.263 332.233L603.263 329.324C603.254 329.259 603.197 329.21 603.131 329.211L601.809 329.211C601.746 329.206 601.7 329.152 601.705 329.089 601.706 329.064 601.717 329.041 601.733 329.022ZM606.399 339.373 604.151 341.621C604.11 341.668 604.038 341.673 603.991 341.631 603.988 341.628 603.984 341.625 603.981 341.621L601.733 339.373C601.681 339.339 601.667 339.268 601.702 339.216 601.71 339.204 601.721 339.193 601.733 339.184L603.056 339.184C603.122 339.185 603.178 339.137 603.188 339.071L603.188 336.143C603.188 336.081 603.239 336.03 603.301 336.03L604.699 336.03C604.761 336.03 604.812 336.081 604.812 336.143L604.812 339.071C604.812 339.134 604.863 339.184 604.926 339.184L606.248 339.184C606.3 339.143 606.376 339.151 606.418 339.203 606.46 339.255 606.451 339.332 606.399 339.373ZM597.521 336.446 597.521 335.123C597.521 335.061 597.47 335.01 597.408 335.01L594.556 335.01C594.493 335.01 594.442 334.959 594.442 334.897L594.442 333.556C594.41 333.502 594.428 333.432 594.482 333.4 594.504 333.387 594.53 333.382 594.556 333.386L597.408 333.386C597.47 333.386 597.521 333.335 597.521 333.272L597.521 331.95C597.529 331.877 597.594 331.825 597.666 331.832 597.689 331.834 597.71 331.842 597.729 331.856L599.977 334.122C600.015 334.165 600.015 334.23 599.977 334.273L597.729 336.54C597.669 336.582 597.587 336.568 597.545 336.508 597.532 336.49 597.523 336.468 597.521 336.446ZM610.611 331.95 610.611 333.272C610.611 333.335 610.662 333.386 610.724 333.386L613.633 333.386C613.633 333.386 613.766 333.386 613.766 333.499L613.766 334.897C613.756 334.962 613.7 335.011 613.633 335.01L610.724 335.01C610.662 335.01 610.611 335.061 610.611 335.123L610.611 336.446C610.617 336.508 610.571 336.563 610.509 336.569 610.477 336.572 610.446 336.561 610.422 336.54L608.174 334.273 608.174 334.122 610.422 331.856C610.422 331.856 610.611 331.837 610.611 331.95Z" fill="#FFFFFF"/></g></g></g><rect x="776.5" y="119.5" width="131" height="121" stroke="#2F528F" stroke-width="3" stroke-miterlimit="8" stroke-dasharray="3 3" fill="none"/><g clip-path="url(#clip21)"><g clip-path="url(#clip22)"><g clip-path="url(#clip23)"><path d="M922.244 239.969C922.244 241.962 920.629 243.578 918.636 243.578 916.642 243.578 915.027 241.962 915.027 239.969 915.027 237.976 916.642 236.36 918.636 236.36 920.629 236.36 922.244 237.976 922.244 239.969Z" fill="url(#fill24)"/><path d="M910.733 240C910.733 241.993 909.118 243.609 907.124 243.609 905.131 243.609 903.516 241.993 903.516 240 903.516 238.007 905.131 236.391 907.124 236.391 909.118 236.391 910.733 238.007 910.733 240Z" fill="url(#fill25)"/><path d="M899.222 240C899.222 241.993 897.606 243.609 895.613 243.609 893.62 243.609 892.004 241.993 892.004 240 892.004 238.007 893.62 236.391 895.613 236.391 897.606 236.391 899.222 238.007 899.222 240Z" fill="url(#fill26)"/><path d="M898.233 254.428 896.168 256.499C895.804 256.864 895.213 256.865 894.848 256.501L879.56 241.255C878.83 240.527 878.828 239.345 879.556 238.615L881.621 236.544 881.621 236.544 898.231 253.108C898.596 253.472 898.597 254.063 898.233 254.428Z" fill="#50E6FF"/><path d="M895.856 223.537 897.927 225.602C898.292 225.966 898.292 226.557 897.928 226.922L881.606 243.29 881.606 243.29 879.535 241.225C878.805 240.497 878.804 239.315 879.532 238.585L894.536 223.539C894.9 223.174 895.491 223.173 895.856 223.537Z" fill="#1490DF"/><path d="M932.376 236.516 934.441 238.587C935.169 239.317 935.168 240.498 934.438 241.226L919.149 256.472C918.784 256.836 918.193 256.835 917.829 256.47L915.764 254.4C915.4 254.035 915.401 253.444 915.766 253.08L932.376 236.516 932.376 236.516Z" fill="#50E6FF"/><path d="M934.435 241.204 932.364 243.269 932.364 243.269 916.042 226.901C915.678 226.536 915.679 225.945 916.044 225.581L918.136 223.494C918.501 223.13 919.092 223.131 919.456 223.496L934.461 238.542C935.188 239.272 935.187 240.454 934.457 241.182Z" fill="#1490DF"/></g></g></g><rect x="783.5" y="416.5" width="131" height="121" stroke="#2F528F" stroke-width="3" stroke-miterlimit="8" stroke-dasharray="3 3" fill="none"/><g clip-path="url(#clip27)"><g clip-path="url(#clip28)"><g clip-path="url(#clip29)"><path d="M929.017 537.468C929.017 539.497 927.372 541.142 925.343 541.142 923.315 541.142 921.67 539.497 921.67 537.468 921.67 535.44 923.315 533.795 925.343 533.795 927.372 533.795 929.017 535.44 929.017 537.468Z" fill="url(#fill30)"/><path d="M917.3 537.5C917.3 539.529 915.655 541.173 913.627 541.173 911.598 541.173 909.953 539.529 909.953 537.5 909.953 535.471 911.598 533.827 913.627 533.827 915.655 533.827 917.3 535.471 917.3 537.5Z" fill="url(#fill31)"/><path d="M905.583 537.5C905.583 539.529 903.939 541.173 901.91 541.173 899.881 541.173 898.237 539.529 898.237 537.5 898.237 535.471 899.881 533.827 901.91 533.827 903.939 533.827 905.583 535.471 905.583 537.5Z" fill="url(#fill32)"/><path d="M904.577 552.186 902.475 554.293C902.104 554.665 901.503 554.666 901.131 554.295L885.57 538.777C884.827 538.036 884.825 536.833 885.566 536.09L887.668 533.982 887.668 533.982 904.575 550.842C904.946 551.213 904.947 551.814 904.577 552.186Z" fill="#50E6FF"/><path d="M902.157 520.743 904.264 522.845C904.636 523.215 904.637 523.817 904.266 524.188L887.653 540.848 887.653 540.848 885.545 538.746C884.802 538.005 884.8 536.802 885.541 536.059L900.813 520.745C901.184 520.373 901.785 520.372 902.157 520.743Z" fill="#1490DF"/><path d="M939.329 533.954 941.431 536.061C942.172 536.804 942.171 538.007 941.428 538.748L925.866 554.266C925.495 554.637 924.893 554.636 924.522 554.265L922.421 552.157C922.05 551.785 922.051 551.184 922.422 550.813L939.329 533.954 939.329 533.954Z" fill="#50E6FF"/><path d="M941.425 538.726 939.317 540.828 939.317 540.828 922.703 524.167C922.333 523.796 922.334 523.194 922.705 522.824L924.835 520.7C925.207 520.329 925.808 520.33 926.179 520.701L941.451 536.016C942.192 536.759 942.19 537.962 941.447 538.703Z" fill="#1490DF"/></g></g></g><g clip-path="url(#clip33)"><g clip-path="url(#clip34)"><g clip-path="url(#clip35)"><path d="M36.48 0.443333C37.1796 0.443333 37.7467 1.01044 37.7467 1.71L37.7467 24.51C37.7467 25.2096 37.1796 25.7767 36.48 25.7767L1.01333 25.7767C0.313774 25.7767-0.253332 25.2096-0.253332 24.51L-0.253332 1.71C-0.253332 1.01044 0.313774 0.443333 1.01333 0.443333Z" fill="url(#fill36)" transform="matrix(1 0 0 1.02632 810 457)"/><path d="M25.08 9.41556 25.08 16.7833 18.7467 20.4989 18.7467 13.11 25.08 9.41556Z" fill="#50E6FF" transform="matrix(1 0 0 1.02632 810 457)"/><path d="M25.08 9.41556 18.7467 13.1311 12.4133 9.41556 18.7467 5.72111 25.08 9.41556Z" fill="#C3F1FF" transform="matrix(1 0 0 1.02632 810 457)"/><path d="M18.7467 13.1311 18.7467 20.4989 12.4133 16.7833 12.4133 9.41556 18.7467 13.1311Z" fill="#9CEBFF" transform="matrix(1 0 0 1.02632 810 457)"/><path d="M12.4133 16.7833 18.7467 13.11 18.7467 20.4989 12.4133 16.7833Z" fill="#C3F1FF" transform="matrix(1 0 0 1.02632 810 457)"/><path d="M25.08 16.7833 18.7467 13.11 18.7467 20.4989 25.08 16.7833Z" fill="#9CEBFF" transform="matrix(1 0 0 1.02632 810 457)"/><path d="M26.3678 33.44C22.61 32.8489 22.4622 30.1467 22.4622 25.7767L15.01 25.7767C15.01 30.1467 14.8833 32.8489 11.1256 33.44 10.0511 33.5589 9.24011 34.4702 9.24667 35.5511L28.2467 35.5511C28.2532 34.4702 27.4422 33.5589 26.3678 33.44Z" fill="url(#fill37)" transform="matrix(1 0 0 1.02632 810 457)"/></g></g></g><g clip-path="url(#clip38)"><g clip-path="url(#clip39)"><g clip-path="url(#clip40)"><path d="M896.44 457.455C897.158 457.455 897.74 458.037 897.74 458.755L897.74 482.155C897.74 482.873 897.158 483.455 896.44 483.455L860.04 483.455C859.322 483.455 858.74 482.873 858.74 482.155L858.74 458.755C858.74 458.037 859.322 457.455 860.04 457.455Z" fill="url(#fill41)"/><path d="M884.74 466.663 884.74 474.225 878.24 478.038 878.24 470.455 884.74 466.663Z" fill="#50E6FF"/><path d="M884.74 466.663 878.24 470.477 871.74 466.663 878.24 462.872 884.74 466.663Z" fill="#C3F1FF"/><path d="M878.24 470.477 878.24 478.038 871.74 474.225 871.74 466.663 878.24 470.477Z" fill="#9CEBFF"/><path d="M871.74 474.225 878.24 470.455 878.24 478.038 871.74 474.225Z" fill="#C3F1FF"/><path d="M884.74 474.225 878.24 470.455 878.24 478.038 884.74 474.225Z" fill="#9CEBFF"/><path d="M886.062 491.32C882.205 490.713 882.053 487.94 882.053 483.455L874.405 483.455C874.405 487.94 874.275 490.713 870.418 491.32 869.316 491.442 868.483 492.377 868.49 493.487L887.99 493.487C887.997 492.377 887.164 491.442 886.062 491.32Z" fill="url(#fill42)"/></g></g></g><g clip-path="url(#clip43)"><g clip-path="url(#clip44)"><g clip-path="url(#clip45)"><path d="M36.48 0.443333C37.1796 0.443333 37.7467 1.01044 37.7467 1.71L37.7467 24.51C37.7467 25.2096 37.1796 25.7767 36.48 25.7767L1.01333 25.7767C0.313774 25.7767-0.253332 25.2096-0.253332 24.51L-0.253332 1.71C-0.253332 1.01044 0.313774 0.443333 1.01333 0.443333Z" fill="url(#fill46)" transform="matrix(1.02632 0 0 1 803 153)"/><path d="M25.08 9.41556 25.08 16.7833 18.7467 20.4989 18.7467 13.11 25.08 9.41556Z" fill="#50E6FF" transform="matrix(1.02632 0 0 1 803 153)"/><path d="M25.08 9.41556 18.7467 13.1311 12.4133 9.41556 18.7467 5.72111 25.08 9.41556Z" fill="#C3F1FF" transform="matrix(1.02632 0 0 1 803 153)"/><path d="M18.7467 13.1311 18.7467 20.4989 12.4133 16.7833 12.4133 9.41556 18.7467 13.1311Z" fill="#9CEBFF" transform="matrix(1.02632 0 0 1 803 153)"/><path d="M12.4133 16.7833 18.7467 13.11 18.7467 20.4989 12.4133 16.7833Z" fill="#C3F1FF" transform="matrix(1.02632 0 0 1 803 153)"/><path d="M25.08 16.7833 18.7467 13.11 18.7467 20.4989 25.08 16.7833Z" fill="#9CEBFF" transform="matrix(1.02632 0 0 1 803 153)"/><path d="M26.3678 33.44C22.61 32.8489 22.4622 30.1467 22.4622 25.7767L15.01 25.7767C15.01 30.1467 14.8833 32.8489 11.1256 33.44 10.0511 33.5589 9.24011 34.4702 9.24667 35.5511L28.2467 35.5511C28.2532 34.4702 27.4422 33.5589 26.3678 33.44Z" fill="url(#fill47)" transform="matrix(1.02632 0 0 1 803 153)"/></g></g></g><g clip-path="url(#clip48)"><g clip-path="url(#clip49)"><g clip-path="url(#clip50)"><path d="M36.48 0.443333C37.1796 0.443333 37.7467 1.01044 37.7467 1.71L37.7467 24.51C37.7467 25.2096 37.1796 25.7767 36.48 25.7767L1.01333 25.7767C0.313774 25.7767-0.253332 25.2096-0.253332 24.51L-0.253332 1.71C-0.253332 1.01044 0.313774 0.443333 1.01333 0.443333Z" fill="url(#fill51)" transform="matrix(1.02632 0 0 1 853 153)"/><path d="M25.08 9.41556 25.08 16.7833 18.7467 20.4989 18.7467 13.11 25.08 9.41556Z" fill="#50E6FF" transform="matrix(1.02632 0 0 1 853 153)"/><path d="M25.08 9.41556 18.7467 13.1311 12.4133 9.41556 18.7467 5.72111 25.08 9.41556Z" fill="#C3F1FF" transform="matrix(1.02632 0 0 1 853 153)"/><path d="M18.7467 13.1311 18.7467 20.4989 12.4133 16.7833 12.4133 9.41556 18.7467 13.1311Z" fill="#9CEBFF" transform="matrix(1.02632 0 0 1 853 153)"/><path d="M12.4133 16.7833 18.7467 13.11 18.7467 20.4989 12.4133 16.7833Z" fill="#C3F1FF" transform="matrix(1.02632 0 0 1 853 153)"/><path d="M25.08 16.7833 18.7467 13.11 18.7467 20.4989 25.08 16.7833Z" fill="#9CEBFF" transform="matrix(1.02632 0 0 1 853 153)"/><path d="M26.3678 33.44C22.61 32.8489 22.4622 30.1467 22.4622 25.7767L15.01 25.7767C15.01 30.1467 14.8833 32.8489 11.1256 33.44 10.0511 33.5589 9.24011 34.4702 9.24667 35.5511L28.2467 35.5511C28.2532 34.4702 27.4422 33.5589 26.3678 33.44Z" fill="url(#fill52)" transform="matrix(1.02632 0 0 1 853 153)"/></g></g></g><rect x="254.5" y="268.5" width="130" height="122" stroke="#2F528F" stroke-width="3" stroke-miterlimit="8" stroke-dasharray="3 3" fill="none"/><g clip-path="url(#clip53)"><g clip-path="url(#clip54)"><g clip-path="url(#clip55)"><path d="M366 296C357.178 296 350 303.176 350 312 350 320.824 357.176 328 366 328 374.824 328 382 320.822 382 312 382 303.178 374.822 296 366 296ZM366 326.51C357.998 326.51 351.488 320 351.488 311.998 351.488 303.996 357.998 297.486 366 297.486 374.002 297.486 380.512 303.996 380.512 311.998 380.512 320 374.002 326.51 366 326.51Z" fill="#030104"/><path d="M379.23 310.008C378.177 310.008 375.426 310.008 374.014 310.008 373.554 310.008 373.255 310.008 373.255 310.008 373.255 310.008 373.255 308.91 373.255 308.219 373.255 307.53 372.738 308.049 372.738 308.049 372.738 308.049 368.855 310.975 368.447 311.382 368.15 311.678 368.48 311.961 368.48 311.961L372.635 315.399C372.635 315.399 373.131 315.922 373.131 315.356 373.131 314.789 373.131 313.419 373.131 313.419 373.131 313.419 373.465 313.419 373.977 313.419 375.438 313.419 378.097 313.419 379.18 313.419 379.18 313.419 379.474 313.494 379.474 313.05 379.474 312.602 379.474 310.641 379.474 310.323 379.476 310 379.23 310.008 379.23 310.008Z" fill="#030104"/><path d="M363.638 311.382C363.23 310.975 359.345 308.049 359.345 308.049 359.345 308.049 358.83 307.53 358.83 308.219 358.83 308.908 358.83 310.008 358.83 310.008 358.83 310.008 358.531 310.008 358.071 310.008 356.659 310.008 353.906 310.008 352.855 310.008 352.855 310.008 352.609 310 352.609 310.321 352.609 310.639 352.609 312.6 352.609 313.048 352.609 313.492 352.903 313.417 352.903 313.417 353.986 313.417 356.645 313.417 358.106 313.417 358.618 313.417 358.952 313.417 358.952 313.417 358.952 313.417 358.952 314.787 358.952 315.354 358.952 315.92 359.446 315.397 359.446 315.397L363.601 311.959C363.605 311.961 363.937 311.678 363.638 311.382Z" fill="#030104"/><path d="M366.405 314.345C366.112 314.05 365.828 314.38 365.828 314.38L362.391 318.535C362.391 318.535 361.868 319.029 362.433 319.029 363.001 319.029 364.371 319.029 364.371 319.029 364.371 319.029 364.371 319.363 364.371 319.875 364.371 321.336 364.371 323.997 364.371 325.078 364.371 325.078 364.294 325.371 364.74 325.371 365.187 325.371 367.148 325.371 367.467 325.371 367.787 325.371 367.779 325.126 367.779 325.126 367.779 324.074 367.779 321.322 367.779 319.911 367.779 319.452 367.779 319.151 367.779 319.151 367.779 319.151 368.878 319.151 369.569 319.151 370.256 319.151 369.738 318.635 369.738 318.635 369.738 318.635 366.813 314.752 366.405 314.345Z" fill="#030104"/><path d="M362.391 305.444 365.828 309.599C365.828 309.599 366.11 309.931 366.405 309.634 366.813 309.227 369.74 305.343 369.74 305.343 369.74 305.343 370.26 304.828 369.571 304.828 368.882 304.828 367.781 304.828 367.781 304.828 367.781 304.828 367.781 304.529 367.781 304.069 367.781 302.657 367.781 299.906 367.781 298.853 367.781 298.853 367.789 298.607 367.469 298.607 367.15 298.607 365.189 298.607 364.742 298.607 364.296 298.607 364.373 298.901 364.373 298.901 364.373 299.984 364.373 302.643 364.373 304.104 364.373 304.616 364.373 304.95 364.373 304.95 364.373 304.95 363.003 304.95 362.435 304.95 361.868 304.95 362.391 305.444 362.391 305.444Z" fill="#030104"/></g></g></g><g clip-path="url(#clip56)"><g clip-path="url(#clip57)"><g clip-path="url(#clip58)"><path d="M366 330C357.178 330 350 337.176 350 346 350 354.824 357.176 362 366 362 374.824 362 382 354.822 382 346 382 337.178 374.822 330 366 330ZM366 360.51C357.998 360.51 351.488 354 351.488 345.998 351.488 337.996 357.998 331.486 366 331.486 374.002 331.486 380.512 337.996 380.512 345.998 380.512 354 374.002 360.51 366 360.51Z" fill="#030104"/><path d="M379.23 344.008C378.177 344.008 375.426 344.008 374.014 344.008 373.554 344.008 373.255 344.008 373.255 344.008 373.255 344.008 373.255 342.91 373.255 342.219 373.255 341.53 372.738 342.049 372.738 342.049 372.738 342.049 368.855 344.975 368.447 345.382 368.15 345.678 368.48 345.961 368.48 345.961L372.635 349.399C372.635 349.399 373.131 349.922 373.131 349.356 373.131 348.789 373.131 347.419 373.131 347.419 373.131 347.419 373.465 347.419 373.977 347.419 375.438 347.419 378.097 347.419 379.18 347.419 379.18 347.419 379.474 347.494 379.474 347.05 379.474 346.602 379.474 344.641 379.474 344.323 379.476 344 379.23 344.008 379.23 344.008Z" fill="#030104"/><path d="M363.638 345.382C363.23 344.975 359.345 342.049 359.345 342.049 359.345 342.049 358.83 341.53 358.83 342.219 358.83 342.908 358.83 344.008 358.83 344.008 358.83 344.008 358.531 344.008 358.071 344.008 356.659 344.008 353.906 344.008 352.855 344.008 352.855 344.008 352.609 344 352.609 344.321 352.609 344.639 352.609 346.6 352.609 347.048 352.609 347.492 352.903 347.417 352.903 347.417 353.986 347.417 356.645 347.417 358.106 347.417 358.618 347.417 358.952 347.417 358.952 347.417 358.952 347.417 358.952 348.787 358.952 349.354 358.952 349.92 359.446 349.397 359.446 349.397L363.601 345.959C363.605 345.961 363.937 345.678 363.638 345.382Z" fill="#030104"/><path d="M366.405 348.345C366.112 348.05 365.828 348.38 365.828 348.38L362.391 352.535C362.391 352.535 361.868 353.029 362.433 353.029 363.001 353.029 364.371 353.029 364.371 353.029 364.371 353.029 364.371 353.363 364.371 353.875 364.371 355.336 364.371 357.997 364.371 359.078 364.371 359.078 364.294 359.371 364.74 359.371 365.187 359.371 367.148 359.371 367.467 359.371 367.787 359.371 367.779 359.126 367.779 359.126 367.779 358.074 367.779 355.322 367.779 353.911 367.779 353.452 367.779 353.151 367.779 353.151 367.779 353.151 368.878 353.151 369.569 353.151 370.256 353.151 369.738 352.635 369.738 352.635 369.738 352.635 366.813 348.752 366.405 348.345Z" fill="#030104"/><path d="M362.391 339.444 365.828 343.599C365.828 343.599 366.11 343.931 366.405 343.634 366.813 343.227 369.74 339.343 369.74 339.343 369.74 339.343 370.26 338.828 369.571 338.828 368.882 338.828 367.781 338.828 367.781 338.828 367.781 338.828 367.781 338.529 367.781 338.069 367.781 336.657 367.781 333.906 367.781 332.853 367.781 332.853 367.789 332.607 367.469 332.607 367.15 332.607 365.189 332.607 364.742 332.607 364.296 332.607 364.373 332.901 364.373 332.901 364.373 333.984 364.373 336.643 364.373 338.104 364.373 338.616 364.373 338.95 364.373 338.95 364.373 338.95 363.003 338.95 362.435 338.95 361.868 338.95 362.391 339.444 362.391 339.444Z" fill="#030104"/></g></g></g><text font-family="Calibri,Calibri_MSFontService,sans-serif" font-weight="400" font-size="24" transform="translate(253.309 414)">On<tspan font-size="24" x="28.5" y="0">-</tspan><tspan font-size="24" x="35.8333" y="0">premises</tspan><tspan font-size="24" x="0" y="29">10.150.0.0/20</tspan></text><path d="M396 324 476.377 324 476.377 332 396 332ZM400 336 384 328 400 320ZM472.377 320 488.377 328 472.377 336Z" fill="#4472C4"/><text font-family="Calibri,Calibri_MSFontService,sans-serif" font-weight="400" font-size="24" transform="translate(582.936 422)">Hub VNET<tspan font-size="24" x="0" y="29">10.110.0.0/16</tspan><tspan font-size="24" x="196.114" y="-149">Spoke VNET 1</tspan><tspan font-size="24" x="196.114" y="-120">10.130.0.0/16</tspan><tspan font-size="24" x="209.521" y="160">Spoke VNET 2</tspan><tspan font-size="24" x="209.521" y="189">10.140.0.0/16</tspan></text><path d="M5.51575 5.29869 35.141 47.8606 32.6788 49.5745 3.0535 7.01254ZM1.44818 9.95755 0 0 8.83495 4.81598ZM36.7464 44.9156 38.1945 54.8732 29.3596 50.0572Z" fill="#4472C4" transform="matrix(1 0 0 -1 723.5 246.373)"/><path d="M724.058 423.436 764.925 460.601 762.906 462.82 722.04 425.656ZM721.131 428.884 717.5 419.5 727.186 422.226ZM765.834 457.372 769.464 466.757 759.778 464.031Z" fill="#4472C4"/><g clip-path="url(#clip59)"><g clip-path="url(#clip60)"><g clip-path="url(#clip61)"><path d="M22.44 25.84 21.6192 25.84 13.5266 25.84 13.1043 25.84C14.2256 29.9193 12.7194 30.5041 6.12 30.5041L6.12 32.64 14.5126 32.64 20.64 32.64 28.56 32.64 28.56 30.5041C21.9606 30.5041 21.3139 29.9214 22.4366 25.84" fill="#002050" transform="matrix(1.20588 0 0 1 590 351)"/><path d="M31.9464 1.36 1.84892 1.36C0.8262 1.36 0.00136 2.2746 0.00136 3.29596L0.00136 24.5997C0.00136 25.6149 0.8262 26.5193 1.84892 26.5193L31.9464 26.5193C32.9671 26.5193 34.0007 25.6149 34.0007 24.5997L34.0007 3.29596C34.0007 2.27188 32.9671 1.36 31.9464 1.36" fill="#002050" transform="matrix(1.20588 0 0 1 590 351)"/><path d="M31.9675 1.36204C31.96 1.36204 31.9532 1.36068 31.9464 1.36068L1.84824 1.36068C0.82552 1.36068 0.00068 2.2746 0.00068 3.29664L0.00068 24.5997C0.00068 25.6156 0.82552 26.52 1.84824 26.52L2.56428 26.52 31.9675 1.36204Z" fill="#002050" transform="matrix(1.20588 0 0 1 590 351)"/><path d="M31.28 4.08 31.28 23.8 2.72 23.8 2.72 4.08Z" fill="#002050" transform="matrix(1.20588 0 0 1 590 351)"/><path d="M6.12 30.6 28.56 30.6 28.56 32.64 6.12 32.64Z" fill="#002050" transform="matrix(1.20588 0 0 1 590 351)"/><path d="M17.3522 2.7846C17.3522 3.05116 17.136 3.2674 16.8694 3.2674 16.6022 3.2674 16.3873 3.05116 16.3873 2.7846 16.3873 2.51736 16.6022 2.3018 16.8694 2.3018 17.136 2.3018 17.3522 2.51736 17.3522 2.7846" fill="#002050" transform="matrix(1.20588 0 0 1 590 351)"/><path d="M17.019 13.1879C16.9884 13.1879 16.9572 13.1784 16.9279 13.1621L10.9412 9.70632C10.8861 9.67368 10.8514 9.61316 10.8514 9.54924 10.8514 9.48464 10.8861 9.4248 10.9412 9.39284L16.8919 5.95952C16.9476 5.92824 17.0156 5.92824 17.0707 5.95952L23.0595 9.41664C23.1152 9.4486 23.1486 9.50844 23.1486 9.57304 23.1486 9.63832 23.1152 9.69748 23.0595 9.72944L17.1108 13.1621C17.0816 13.1784 17.0517 13.1879 17.019 13.1879" fill="#002050" transform="matrix(1.20588 0 0 1 590 351)"/><path d="M16.1588 21.5873C16.1248 21.5873 16.0942 21.5791 16.0677 21.5628L10.0987 18.1179C10.0409 18.086 10.0062 18.0275 10.0062 17.9608L10.0062 11.048C10.0062 10.9827 10.0409 10.9235 10.0987 10.8909 10.1538 10.8576 10.2218 10.8576 10.2809 10.8909L16.2493 14.3344C16.3023 14.3684 16.3377 14.4276 16.3377 14.4928L16.3377 21.4057C16.3377 21.4717 16.3023 21.5302 16.2493 21.5628 16.2194 21.5791 16.1881 21.5873 16.1588 21.5873" fill="#002050" transform="matrix(1.20588 0 0 1 590 351)"/><path d="M17.8486 21.5873C17.816 21.5873 17.7854 21.5791 17.7548 21.5628 17.7018 21.5302 17.6671 21.4717 17.6671 21.4057L17.6671 14.5364C17.6671 14.4724 17.7018 14.4126 17.7548 14.3793L23.7232 10.9358C23.7803 10.9031 23.8469 10.9031 23.9027 10.9358 23.9598 10.9677 23.9945 11.0276 23.9945 11.0922L23.9945 17.9608C23.9945 18.0275 23.9598 18.086 23.9027 18.1179L17.9364 21.5628C17.9112 21.5791 17.8799 21.5873 17.8486 21.5873" fill="#002050" transform="matrix(1.20588 0 0 1 590 351)"/></g></g></g><text fill="#FFFFFF" font-family="Segoe UI,Segoe UI_MSFontService,sans-serif" font-weight="400" font-size="13" transform="translate(598.771 369)">ARS</text><rect x="411.5" y="80.5001" width="131" height="122" stroke="#2F528F" stroke-width="3" stroke-miterlimit="8" stroke-dasharray="3 3" fill="none"/><g clip-path="url(#clip62)"><g clip-path="url(#clip63)"><g clip-path="url(#clip64)"><path d="M16 0C7.1778 0 0 7.17587 0 16 0 24.8241 7.17587 32 16 32 24.8241 32 32 24.8222 32 16 32 7.1778 24.8222 0 16 0ZM16 30.51C7.99807 30.51 1.48806 24 1.48806 15.9981 1.48806 7.99614 7.99807 1.48613 16 1.48613 24.0019 1.48613 30.5119 7.99614 30.5119 15.9981 30.5119 24 24.0019 30.51 16 30.51Z" fill="#030104" transform="matrix(1 0 0 1.03125 504 122)"/><path d="M29.2304 14.0082C28.1766 14.0082 25.4263 14.0082 24.0135 14.0082 23.5542 14.0082 23.255 14.0082 23.255 14.0082 23.255 14.0082 23.255 12.91 23.255 12.2191 23.255 11.53 22.7378 12.0492 22.7378 12.0492 22.7378 12.0492 18.8545 14.9752 18.4473 15.3824 18.1501 15.6777 18.4801 15.9614 18.4801 15.9614L22.6355 19.3988C22.6355 19.3988 23.1315 19.9218 23.1315 19.3563 23.1315 18.7889 23.1315 17.4186 23.1315 17.4186 23.1315 17.4186 23.4654 17.4186 23.9768 17.4186 25.4379 17.4186 28.0975 17.4186 29.1802 17.4186 29.1802 17.4186 29.4736 17.4938 29.4736 17.0499 29.4736 16.6022 29.4736 14.6413 29.4736 14.3228 29.4755 14.0005 29.2304 14.0082 29.2304 14.0082Z" fill="#030104" transform="matrix(1 0 0 1.03125 504 122)"/><path d="M13.6376 15.3824C13.2304 14.9752 9.34523 12.0492 9.34523 12.0492 9.34523 12.0492 8.82992 11.53 8.82992 12.2191 8.82992 12.9081 8.82992 14.0082 8.82992 14.0082 8.82992 14.0082 8.53076 14.0082 8.07141 14.0082 6.65863 14.0082 3.90639 14.0082 2.85452 14.0082 2.85452 14.0082 2.60941 14.0005 2.60941 14.3209 2.60941 14.6393 2.60941 16.6002 2.60941 17.048 2.60941 17.4919 2.90277 17.4166 2.90277 17.4166 3.98552 17.4166 6.64511 17.4166 8.10615 17.4166 8.61761 17.4166 8.95151 17.4166 8.95151 17.4166 8.95151 17.4166 8.95151 18.787 8.95151 19.3544 8.95151 19.9199 9.4456 19.3969 9.4456 19.3969L13.601 15.9595C13.6048 15.9614 13.9368 15.6777 13.6376 15.3824Z" fill="#030104" transform="matrix(1 0 0 1.03125 504 122)"/><path d="M16.4053 18.345C16.1119 18.0497 15.8282 18.3797 15.8282 18.3797L12.3908 22.5351C12.3908 22.5351 11.8678 23.0292 12.4333 23.0292 13.0007 23.0292 14.371 23.0292 14.371 23.0292 14.371 23.0292 14.371 23.3631 14.371 23.8745 14.371 25.3356 14.371 27.9971 14.371 29.0779 14.371 29.0779 14.2938 29.3713 14.7397 29.3713 15.1875 29.3713 17.1484 29.3713 17.4668 29.3713 17.7872 29.3713 17.7795 29.1262 17.7795 29.1262 17.7795 28.0743 17.7795 25.3221 17.7795 23.9112 17.7795 23.4519 17.7795 23.1508 17.7795 23.1508 17.7795 23.1508 18.8777 23.1508 19.5686 23.1508 20.2557 23.1508 19.7385 22.6355 19.7385 22.6355 19.7385 22.6355 16.8125 18.7522 16.4053 18.345Z" fill="#030104" transform="matrix(1 0 0 1.03125 504 122)"/><path d="M12.3908 9.44367 15.8282 13.599C15.8282 13.599 16.11 13.931 16.4053 13.6338 16.8125 13.2265 19.7404 9.34331 19.7404 9.34331 19.7404 9.34331 20.2596 8.82799 19.5706 8.82799 18.8815 8.82799 17.7814 8.82799 17.7814 8.82799 17.7814 8.82799 17.7814 8.52883 17.7814 8.06948 17.7814 6.65669 17.7814 3.90639 17.7814 2.85259 17.7814 2.85259 17.7891 2.60748 17.4688 2.60748 17.1503 2.60748 15.1894 2.60748 14.7416 2.60748 14.2958 2.60748 14.373 2.90084 14.373 2.90084 14.373 3.98359 14.373 6.64318 14.373 8.10422 14.373 8.61568 14.373 8.94958 14.373 8.94958 14.373 8.94958 13.0027 8.94958 12.4352 8.94958 11.8678 8.94958 12.3908 9.44367 12.3908 9.44367Z" fill="#030104" transform="matrix(1 0 0 1.03125 504 122)"/></g></g></g><text font-family="Calibri,Calibri_MSFontService,sans-serif" font-weight="400" font-size="24" transform="translate(410.532 226)">Branch 1<tspan font-size="24" x="0" y="29">10.100.0.0/16</tspan></text><path d="M537.695 161.114 591.921 249.714 589.362 251.28 535.136 162.68ZM533.36 165.526 532.5 155.5 541.036 160.827ZM593.697 246.868 594.557 256.894 586.021 251.567Z" fill="#4472C4"/><text font-family="Calibri,Calibri_MSFontService,sans-serif" font-weight="400" font-size="14" transform="translate(628.597 332)">ER Gateway<tspan font-size="14" x="0" y="-42">VPN Gateway</tspan><tspan font-size="14" x="10.673" y="36">Route Server</tspan></text><path d="M529 324 572.035 324 572.035 332 529 332ZM533 336 517 328 533 320ZM568.035 320 584.035 328 568.035 336Z" fill="#4472C4"/></g></svg>