<svg width="1280" height="720" xmlns="http://www.w3.org/2000/svg" xmlns:xlink="http://www.w3.org/1999/xlink" overflow="hidden"><defs><clipPath id="clip0"><rect x="0" y="0" width="1280" height="720"/></clipPath><clipPath id="clip1"><rect x="231" y="253" width="56" height="57"/></clipPath><clipPath id="clip2"><rect x="231" y="253" width="56" height="57"/></clipPath><clipPath id="clip3"><rect x="231" y="253" width="56" height="57"/></clipPath><linearGradient x1="37.0906" y1="25.4371" x2="42.2" y2="30.5321" gradientUnits="userSpaceOnUse" spreadMethod="pad" id="fill4"><stop offset="0" stop-color="#86D633"/><stop offset="1" stop-color="#5E9624"/></linearGradient><linearGradient x1="19.2267" y1="26.7244" x2="24.2978" y2="31.8267" gradientUnits="userSpaceOnUse" spreadMethod="pad" id="fill5"><stop offset="0" stop-color="#86D633"/><stop offset="1" stop-color="#5E9624"/></linearGradient><linearGradient x1="7.71556" y1="26.7244" x2="12.7867" y2="31.8267" gradientUnits="userSpaceOnUse" spreadMethod="pad" id="fill6"><stop offset="0" stop-color="#86D633"/><stop offset="1" stop-color="#5E9624"/></linearGradient><clipPath id="clip7"><rect x="93" y="244" width="41" height="34"/></clipPath><clipPath id="clip8"><rect x="93" y="244" width="41" height="34"/></clipPath><clipPath id="clip9"><rect x="93" y="244" width="41" height="34"/></clipPath><clipPath id="clip10"><rect x="70" y="160" width="38" height="39"/></clipPath><clipPath id="clip11"><rect x="70" y="160" width="38" height="39"/></clipPath><clipPath id="clip12"><rect x="70" y="160" width="38" height="39"/></clipPath><linearGradient x1="18.7467" y1="25.7767" x2="18.7467" y2="0.443333" gradientUnits="userSpaceOnUse" spreadMethod="pad" id="fill13"><stop offset="0" stop-color="#0078D4"/><stop offset="0.82" stop-color="#5EA0EF"/><stop offset="1" stop-color="#5EA0EF"/></linearGradient><linearGradient x1="18.7467" y1="35.5511" x2="18.7467" y2="25.7767" gradientUnits="userSpaceOnUse" spreadMethod="pad" id="fill14"><stop offset="0" stop-color="#CCCCCC"/><stop offset="0.15" stop-color="#CCCCCC"/><stop offset="1" stop-color="#707070"/></linearGradient><clipPath id="clip15"><rect x="111" y="160" width="38" height="39"/></clipPath><clipPath id="clip16"><rect x="111" y="160" width="38" height="39"/></clipPath><clipPath id="clip17"><rect x="111" y="160" width="38" height="39"/></clipPath><linearGradient x1="18.7467" y1="25.7767" x2="18.7467" y2="0.443333" gradientUnits="userSpaceOnUse" spreadMethod="pad" id="fill18"><stop offset="0" stop-color="#0078D4"/><stop offset="0.82" stop-color="#5EA0EF"/><stop offset="1" stop-color="#5EA0EF"/></linearGradient><linearGradient x1="18.7467" y1="35.5511" x2="18.7467" y2="25.7767" gradientUnits="userSpaceOnUse" spreadMethod="pad" id="fill19"><stop offset="0" stop-color="#CCCCCC"/><stop offset="0.15" stop-color="#CCCCCC"/><stop offset="1" stop-color="#707070"/></linearGradient><clipPath id="clip20"><rect x="92" y="80" width="38" height="38"/></clipPath><clipPath id="clip21"><rect x="92" y="80" width="38" height="38"/></clipPath><clipPath id="clip22"><rect x="92" y="80" width="38" height="38"/></clipPath><linearGradient x1="110.747" y1="105.777" x2="110.747" y2="80.4433" gradientUnits="userSpaceOnUse" spreadMethod="pad" id="fill23"><stop offset="0" stop-color="#0078D4"/><stop offset="0.82" stop-color="#5EA0EF"/><stop offset="1" stop-color="#5EA0EF"/></linearGradient><linearGradient x1="110.747" y1="115.551" x2="110.747" y2="105.777" gradientUnits="userSpaceOnUse" spreadMethod="pad" id="fill24"><stop offset="0" stop-color="#CCCCCC"/><stop offset="0.15" stop-color="#CCCCCC"/><stop offset="1" stop-color="#707070"/></linearGradient></defs><g clip-path="url(#clip0)"><rect x="0" y="0" width="1280" height="720" fill="#FFFFFF"/><rect x="53.5001" y="64.5001" width="178" height="217" stroke="#2F528F" stroke-width="3" stroke-miterlimit="8" stroke-dasharray="3 3" fill="none"/><g clip-path="url(#clip1)"><g clip-path="url(#clip2)"><g clip-path="url(#clip3)"><path d="M43.2444 27.9689C43.2444 29.962 41.6287 31.5778 39.6356 31.5778 37.6424 31.5778 36.0267 29.962 36.0267 27.9689 36.0267 25.9758 37.6424 24.36 39.6356 24.36 41.6287 24.36 43.2444 25.9758 43.2444 27.9689Z" fill="url(#fill4)" transform="matrix(1 0 0 1.01786 231 253)"/><path d="M31.7333 28C31.7333 29.9931 30.1176 31.6089 28.1244 31.6089 26.1313 31.6089 24.5156 29.9931 24.5156 28 24.5156 26.0069 26.1313 24.3911 28.1244 24.3911 30.1176 24.3911 31.7333 26.0069 31.7333 28Z" fill="url(#fill5)" transform="matrix(1 0 0 1.01786 231 253)"/><path d="M20.2222 28C20.2222 29.9931 18.6065 31.6089 16.6133 31.6089 14.6202 31.6089 13.0044 29.9931 13.0044 28 13.0044 26.0069 14.6202 24.3911 16.6133 24.3911 18.6065 24.3911 20.2222 26.0069 20.2222 28Z" fill="url(#fill6)" transform="matrix(1 0 0 1.01786 231 253)"/><path d="M8.19133 22.8479 11.1415 22.8479C11.6615 22.8479 12.083 23.2694 12.083 23.7894L12.083 45.5702C12.083 46.6103 11.2399 47.4532 10.1999 47.4532L7.2498 47.4532 7.2498 47.4532 7.2498 23.7894C7.2498 23.2694 7.67133 22.8479 8.19133 22.8479Z" fill="#50E6FF" transform="matrix(-0.69997 0.714461 -0.701927 -0.712469 272.004 306.612)"/><path d="M8.03481 9.13332 10.9851 9.13332C11.5051 9.13332 11.9267 9.55486 11.9267 10.0749L11.9267 33.3947 11.9267 33.3947 8.97639 33.3947C7.93635 33.3947 7.09323 32.5517 7.09323 31.5115L7.09323 10.0749C7.09323 9.55486 7.51478 9.13332 8.03481 9.13332Z" fill="#1490DF" transform="matrix(0.701892 0.712434 -0.699935 0.714426 248.609 252.493)"/><path d="M44.409 22.8479 47.3591 22.8479C48.3992 22.8479 49.2422 23.6909 49.2422 24.7309L49.2422 46.5117C49.2422 47.0318 48.8207 47.4532 48.3006 47.4532L45.3505 47.4532C44.8305 47.4532 44.409 47.0318 44.409 46.5117L44.409 22.8479 44.409 22.8479Z" fill="#50E6FF" transform="matrix(0.69997 0.714461 -0.701927 0.712469 269.329 229.947)"/><path d="M46.4826 9.13332 49.4329 9.13332 49.4329 9.13332 49.4329 32.4531C49.4329 32.9732 49.0114 33.3947 48.4913 33.3947L45.5097 33.3947C44.9896 33.3947 44.5681 32.9732 44.5681 32.4531L44.5681 11.0165C44.5681 9.97644 45.4111 9.13332 46.4512 9.13332Z" fill="#1490DF" transform="matrix(-0.701892 0.712434 -0.699935 -0.714426 325.453 256.135)"/></g></g></g><text font-family="Calibri,Calibri_MSFontService,sans-serif" font-weight="400" font-size="24" transform="translate(75.9439 303)">Hub VNET<tspan font-size="24" x="0" y="29">10.110.0.0</tspan><tspan font-size="24" x="103.167" y="29">/</tspan><tspan font-size="24" x="112.5" y="29">16</tspan></text><g clip-path="url(#clip7)"><g clip-path="url(#clip8)"><g clip-path="url(#clip9)"><path d="M22.44 25.84 21.6192 25.84 13.5266 25.84 13.1043 25.84C14.2256 29.9193 12.7194 30.5041 6.12 30.5041L6.12 32.64 14.5126 32.64 20.64 32.64 28.56 32.64 28.56 30.5041C21.9606 30.5041 21.3139 29.9214 22.4366 25.84" fill="#002050" transform="matrix(1.20588 0 0 1 93 244)"/><path d="M31.9464 1.36 1.84892 1.36C0.8262 1.36 0.00136 2.2746 0.00136 3.29596L0.00136 24.5997C0.00136 25.6149 0.8262 26.5193 1.84892 26.5193L31.9464 26.5193C32.9671 26.5193 34.0007 25.6149 34.0007 24.5997L34.0007 3.29596C34.0007 2.27188 32.9671 1.36 31.9464 1.36" fill="#002050" transform="matrix(1.20588 0 0 1 93 244)"/><path d="M31.9675 1.36204C31.96 1.36204 31.9532 1.36068 31.9464 1.36068L1.84824 1.36068C0.82552 1.36068 0.00068 2.2746 0.00068 3.29664L0.00068 24.5997C0.00068 25.6156 0.82552 26.52 1.84824 26.52L2.56428 26.52 31.9675 1.36204Z" fill="#002050" transform="matrix(1.20588 0 0 1 93 244)"/><path d="M31.28 4.08 31.28 23.8 2.72 23.8 2.72 4.08Z" fill="#002050" transform="matrix(1.20588 0 0 1 93 244)"/><path d="M6.12 30.6 28.56 30.6 28.56 32.64 6.12 32.64Z" fill="#002050" transform="matrix(1.20588 0 0 1 93 244)"/><path d="M17.3522 2.7846C17.3522 3.05116 17.136 3.2674 16.8694 3.2674 16.6022 3.2674 16.3873 3.05116 16.3873 2.7846 16.3873 2.51736 16.6022 2.3018 16.8694 2.3018 17.136 2.3018 17.3522 2.51736 17.3522 2.7846" fill="#002050" transform="matrix(1.20588 0 0 1 93 244)"/><path d="M17.019 13.1879C16.9884 13.1879 16.9572 13.1784 16.9279 13.1621L10.9412 9.70632C10.8861 9.67368 10.8514 9.61316 10.8514 9.54924 10.8514 9.48464 10.8861 9.4248 10.9412 9.39284L16.8919 5.95952C16.9476 5.92824 17.0156 5.92824 17.0707 5.95952L23.0595 9.41664C23.1152 9.4486 23.1486 9.50844 23.1486 9.57304 23.1486 9.63832 23.1152 9.69748 23.0595 9.72944L17.1108 13.1621C17.0816 13.1784 17.0517 13.1879 17.019 13.1879" fill="#002050" transform="matrix(1.20588 0 0 1 93 244)"/><path d="M16.1588 21.5873C16.1248 21.5873 16.0942 21.5791 16.0677 21.5628L10.0987 18.1179C10.0409 18.086 10.0062 18.0275 10.0062 17.9608L10.0062 11.048C10.0062 10.9827 10.0409 10.9235 10.0987 10.8909 10.1538 10.8576 10.2218 10.8576 10.2809 10.8909L16.2493 14.3344C16.3023 14.3684 16.3377 14.4276 16.3377 14.4928L16.3377 21.4057C16.3377 21.4717 16.3023 21.5302 16.2493 21.5628 16.2194 21.5791 16.1881 21.5873 16.1588 21.5873" fill="#002050" transform="matrix(1.20588 0 0 1 93 244)"/><path d="M17.8486 21.5873C17.816 21.5873 17.7854 21.5791 17.7548 21.5628 17.7018 21.5302 17.6671 21.4717 17.6671 21.4057L17.6671 14.5364C17.6671 14.4724 17.7018 14.4126 17.7548 14.3793L23.7232 10.9358C23.7803 10.9031 23.8469 10.9031 23.9027 10.9358 23.9598 10.9677 23.9945 11.0276 23.9945 11.0922L23.9945 17.9608C23.9945 18.0275 23.9598 18.086 23.9027 18.1179L17.9364 21.5628C17.9112 21.5791 17.8799 21.5873 17.8486 21.5873" fill="#002050" transform="matrix(1.20588 0 0 1 93 244)"/></g></g></g><text fill="#FFFFFF" font-family="Segoe UI,Segoe UI_MSFontService,sans-serif" font-weight="400" font-size="13" transform="translate(101.793 261)">ARS<tspan fill="#000000" font-family="Calibri,Calibri_MSFontService,sans-serif" font-size="14" x="37.9345" y="4">Route Server</tspan></text><g clip-path="url(#clip10)"><g clip-path="url(#clip11)"><g clip-path="url(#clip12)"><path d="M36.48 0.443333C37.1796 0.443333 37.7467 1.01044 37.7467 1.71L37.7467 24.51C37.7467 25.2096 37.1796 25.7767 36.48 25.7767L1.01333 25.7767C0.313774 25.7767-0.253332 25.2096-0.253332 24.51L-0.253332 1.71C-0.253332 1.01044 0.313774 0.443333 1.01333 0.443333Z" fill="url(#fill13)" transform="matrix(1 0 0 1.02632 70 160)"/><path d="M25.08 9.41556 25.08 16.7833 18.7467 20.4989 18.7467 13.11 25.08 9.41556Z" fill="#50E6FF" transform="matrix(1 0 0 1.02632 70 160)"/><path d="M25.08 9.41556 18.7467 13.1311 12.4133 9.41556 18.7467 5.72111 25.08 9.41556Z" fill="#C3F1FF" transform="matrix(1 0 0 1.02632 70 160)"/><path d="M18.7467 13.1311 18.7467 20.4989 12.4133 16.7833 12.4133 9.41556 18.7467 13.1311Z" fill="#9CEBFF" transform="matrix(1 0 0 1.02632 70 160)"/><path d="M12.4133 16.7833 18.7467 13.11 18.7467 20.4989 12.4133 16.7833Z" fill="#C3F1FF" transform="matrix(1 0 0 1.02632 70 160)"/><path d="M25.08 16.7833 18.7467 13.11 18.7467 20.4989 25.08 16.7833Z" fill="#9CEBFF" transform="matrix(1 0 0 1.02632 70 160)"/><path d="M26.3678 33.44C22.61 32.8489 22.4622 30.1467 22.4622 25.7767L15.01 25.7767C15.01 30.1467 14.8833 32.8489 11.1256 33.44 10.0511 33.5589 9.2401 34.4702 9.24667 35.5511L28.2467 35.5511C28.2532 34.4702 27.4421 33.5589 26.3678 33.44Z" fill="url(#fill14)" transform="matrix(1 0 0 1.02632 70 160)"/></g></g></g><g clip-path="url(#clip15)"><g clip-path="url(#clip16)"><g clip-path="url(#clip17)"><path d="M36.48 0.443333C37.1796 0.443333 37.7467 1.01044 37.7467 1.71L37.7467 24.51C37.7467 25.2096 37.1796 25.7767 36.48 25.7767L1.01333 25.7767C0.313774 25.7767-0.253332 25.2096-0.253332 24.51L-0.253332 1.71C-0.253332 1.01044 0.313774 0.443333 1.01333 0.443333Z" fill="url(#fill18)" transform="matrix(1 0 0 1.02632 111 160)"/><path d="M25.08 9.41556 25.08 16.7833 18.7467 20.4989 18.7467 13.11 25.08 9.41556Z" fill="#50E6FF" transform="matrix(1 0 0 1.02632 111 160)"/><path d="M25.08 9.41556 18.7467 13.1311 12.4133 9.41556 18.7467 5.72111 25.08 9.41556Z" fill="#C3F1FF" transform="matrix(1 0 0 1.02632 111 160)"/><path d="M18.7467 13.1311 18.7467 20.4989 12.4133 16.7833 12.4133 9.41556 18.7467 13.1311Z" fill="#9CEBFF" transform="matrix(1 0 0 1.02632 111 160)"/><path d="M12.4133 16.7833 18.7467 13.11 18.7467 20.4989 12.4133 16.7833Z" fill="#C3F1FF" transform="matrix(1 0 0 1.02632 111 160)"/><path d="M25.08 16.7833 18.7467 13.11 18.7467 20.4989 25.08 16.7833Z" fill="#9CEBFF" transform="matrix(1 0 0 1.02632 111 160)"/><path d="M26.3678 33.44C22.61 32.8489 22.4622 30.1467 22.4622 25.7767L15.01 25.7767C15.01 30.1467 14.8833 32.8489 11.1256 33.44 10.0511 33.5589 9.2401 34.4702 9.24667 35.5511L28.2467 35.5511C28.2532 34.4702 27.4421 33.5589 26.3678 33.44Z" fill="url(#fill19)" transform="matrix(1 0 0 1.02632 111 160)"/></g></g></g><text font-family="Calibri,Calibri_MSFontService,sans-serif" font-weight="400" font-size="14" transform="translate(158.417 180)">NVA</text><g clip-path="url(#clip20)"><g clip-path="url(#clip21)"><g clip-path="url(#clip22)"><path d="M128.48 80.4433C129.18 80.4433 129.747 81.0104 129.747 81.71L129.747 104.51C129.747 105.21 129.18 105.777 128.48 105.777L93.0133 105.777C92.3138 105.777 91.7467 105.21 91.7467 104.51L91.7467 81.71C91.7467 81.0104 92.3138 80.4433 93.0133 80.4433Z" fill="url(#fill23)"/><path d="M117.08 89.4156 117.08 96.7833 110.747 100.499 110.747 93.11 117.08 89.4156Z" fill="#50E6FF"/><path d="M117.08 89.4156 110.747 93.1311 104.413 89.4156 110.747 85.7211 117.08 89.4156Z" fill="#C3F1FF"/><path d="M110.747 93.1311 110.747 100.499 104.413 96.7833 104.413 89.4156 110.747 93.1311Z" fill="#9CEBFF"/><path d="M104.413 96.7833 110.747 93.11 110.747 100.499 104.413 96.7833Z" fill="#C3F1FF"/><path d="M117.08 96.7833 110.747 93.11 110.747 100.499 117.08 96.7833Z" fill="#9CEBFF"/><path d="M118.368 113.44C114.61 112.849 114.462 110.147 114.462 105.777L107.01 105.777C107.01 110.147 106.883 112.849 103.126 113.44 102.051 113.559 101.24 114.47 101.247 115.551L120.247 115.551C120.253 114.47 119.442 113.559 118.368 113.44Z" fill="url(#fill24)"/></g></g></g><text font-family="Calibri,Calibri_MSFontService,sans-serif" font-weight="400" font-size="14" transform="translate(144.387 98)">HUB VM</text><path d="M87.6688 205.913 88.7789 208.7 85.9919 209.81 84.8818 207.023ZM89.889 211.487 90.9991 214.274 88.2121 215.384 87.102 212.597ZM92.1092 217.061 93.2193 219.848 90.4323 220.958 89.3222 218.171ZM94.3294 222.635 95.4395 225.422 92.6525 226.532 91.5424 223.745ZM96.5496 228.209 97.6597 230.996 94.8727 232.106 93.7626 229.319ZM82.6498 209.526 83.5001 199.5 91.0109 206.196ZM100.826 230.838 99.9755 240.864 92.4647 234.168Z" fill="#4472C4"/><path d="M3.90248 6.57805 4.89743 9.40825 2.06722 10.4032 1.07227 7.573ZM5.89238 12.2385 6.88733 15.0687 4.05712 16.0636 3.06217 13.2334ZM7.88228 17.8989 8.87722 20.7291 6.04702 21.724 5.05207 18.8938ZM9.87217 23.5593 10.8671 26.3895 8.03692 27.3844 7.04197 24.5542ZM11.8621 29.2197 12.857 32.0499 10.0268 33.0449 9.03187 30.2147ZM-1.26046 9.98305 0 0 7.23016 6.9982ZM16.04 32.0584 14.7795 42.0415 7.54937 35.0433Z" fill="#4472C4" transform="matrix(-1 0 0 1 131.28 196.5)"/></g></svg>